<svg width="18" height="17" viewBox="0 0 18 17" fill="none" xmlns="http://www.w3.org/2000/svg">
<path d="M3.25 3.25V8.41667C3.25 9.8168 3.25 10.5169 3.52248 11.0516C3.76217 11.522 4.14462 11.9045 4.61502 12.1442C5.1498 12.4167 5.84987 12.4167 7.25 12.4167H11.4144C12.3364 12.4167 12.7973 12.4167 13.2018 12.2737C13.5594 12.1472 13.8835 11.9411 14.1496 11.6709C14.4506 11.3652 14.6461 10.9477 15.037 10.1127L15.5832 8.94605C16.4695 7.05296 16.9127 6.10642 16.7853 5.34004C16.674 4.67052 16.2952 4.07502 15.7361 3.69034C15.096 3.25 14.0509 3.25 11.9606 3.25H3.25ZM3.25 3.25V3.18245C3.25 2.46924 3.25 2.11264 3.14265 1.82819C2.97355 1.38012 2.61988 1.02645 2.17181 0.857349C1.88736 0.75 1.53076 0.75 0.817546 0.75H0.75M4.91667 15.75H5.75M10.75 15.75H11.5833" stroke="#515151" stroke-width="1.5" stroke-linecap="round" stroke-linejoin="round"/>
</svg>
