<svg width="168" height="32" viewBox="0 0 168 32" fill="none" xmlns="http://www.w3.org/2000/svg">
<g clip-path="url(#clip0_193_559)">
<path d="M44.3232 7.43506H48.9144L46.6307 20.4326H54.2839L53.5569 24.557H41.3125L44.3232 7.43506Z" fill="#0A0A0A"/>
<path d="M63.2014 7.43506H67.7412L71.1115 24.557H66.2595L65.821 21.598H60.242L58.6853 24.557H53.7583L63.2014 7.43506ZM65.2797 17.8607L64.604 12.5709L62.1385 17.8607H65.2797Z" fill="#0A0A0A"/>
<path d="M75.3628 7.43506H80.1357L83.0674 16.1264L89.0335 7.43506H94.328L91.3212 24.557H86.7261L88.4922 14.5699L83.4072 21.8825H80.914L78.4762 14.724L76.7378 24.557H72.3521L75.3628 7.43506Z" fill="#0A0A0A"/>
<path d="M97.667 7.43506H104.36C108.485 7.43506 110.48 9.12198 110.48 12.6499C110.48 16.7467 107.73 19.1091 102.957 19.1091H100.208L99.2474 24.557H94.6562L97.663 7.43506H97.667ZM103.143 15.2178C104.905 15.2178 105.79 14.4672 105.79 12.962C105.79 11.7689 105.194 11.3304 103.665 11.3304H101.586L100.887 15.2178H103.143Z" fill="#0A0A0A"/>
<path d="M116.703 7.43506H121.243L124.613 24.557H119.761L119.323 21.598H113.744L112.187 24.557H107.26L116.703 7.43506ZM118.782 17.8607L118.106 12.5709L115.64 17.8607H118.782Z" fill="#0A0A0A"/>
<path d="M128.864 7.43506H135.893C139.939 7.43506 141.859 9.04296 141.859 12.4128C141.859 15.3165 140.433 17.3156 137.889 18.1965L140.848 24.5491H135.632L133.167 18.6864H131.48L130.441 24.5491H125.85L128.86 7.43111L128.864 7.43506ZM134.649 15.0084C136.257 15.0084 137.138 14.2301 137.138 12.8553C137.138 11.7649 136.569 11.3264 135.166 11.3264H132.78L132.132 15.0084H134.649Z" fill="#0A0A0A"/>
<path d="M145.748 7.43506H151.402C156.589 7.43506 159.6 9.66716 159.6 14.878C159.6 20.7407 155.811 24.5531 149.248 24.5531H142.737L145.748 7.43506ZM149.56 20.4839C153.164 20.4839 154.855 18.2281 154.855 15.1388C154.855 12.6736 153.764 11.5081 150.833 11.5081H149.616L148.059 20.4839H149.564H149.56Z" fill="#0A0A0A"/>
<path d="M163.405 7.43506H168L164.989 24.557H160.398L163.405 7.43506Z" fill="#0A0A0A"/>
<path d="M33.0352 0H32.2134V32H33.0352V0Z" fill="#0A0A0A"/>
<path d="M22.2999 10.4612C21.6401 8.67161 20.6207 7.18617 19.2457 6.00494C18.5582 5.37284 17.7325 4.81975 16.8514 4.35358C15.9426 3.91506 14.9509 3.50025 13.8801 3.17235C12.7778 2.84444 11.5964 2.59556 10.3281 2.45728C9.09144 2.31901 7.71251 2.23605 6.25456 2.23605H0.0118532V2.30716H0V25.28H15.0339V24.9047H3.67451V2.59161H6.66943C8.73584 2.59161 10.5494 2.8958 12.0903 3.5279C13.6312 4.13235 14.9232 5.01333 15.9703 6.19457C17.0173 7.3521 17.7878 8.80988 18.3093 10.5679C18.8032 12.3022 19.0521 14.3368 19.0521 16.6479C19.0521 19.7294 18.5819 22.2617 17.6771 24.2963C17.0173 25.7264 16.1362 26.9116 15.0339 27.8202V29.6652C15.666 29.4716 16.2745 29.2227 16.8514 28.9501C17.6771 28.5353 18.4199 28.0691 19.0521 27.4923C20.0162 26.7496 20.8143 25.841 21.4465 24.7941C22.0786 23.7472 22.5449 22.5659 22.8491 21.2148C23.181 19.8677 23.3193 18.3546 23.3193 16.7309C23.3193 14.3368 22.9874 12.2193 22.2999 10.4573" fill="#FF6E00"/>
</g>
<defs>
<clipPath id="clip0_193_559">
<rect width="168" height="32" fill="white"/>
</clipPath>
</defs>
</svg>
