<svg width="17" height="19" viewBox="0 0 17 19" fill="none" xmlns="http://www.w3.org/2000/svg">
<path d="M8.25 4.08333C6.14318 4.08333 4.1581 4.43081 2.41667 5.0445V11.5833C2.41667 13.1344 2.41667 13.9099 2.6206 14.5376C3.03276 15.8061 4.02727 16.8006 5.29576 17.2127C5.9234 17.4167 6.69893 17.4167 8.25 17.4167C9.80107 17.4167 10.5766 17.4167 11.2042 17.2127C12.4727 16.8006 13.4672 15.8061 13.8794 14.5376C14.0833 13.9099 14.0833 13.1344 14.0833 11.5833V5.0445C12.3419 4.43081 10.3568 4.08333 8.25 4.08333ZM8.25 4.08333C7.09566 4.08333 5.97786 4.18765 4.91667 4.38291V4.08333C4.91667 3.30836 4.91667 2.92087 5.00185 2.60295C5.23302 1.74022 5.90689 1.06635 6.76962 0.835185C7.08754 0.75 7.47502 0.75 8.25 0.75C9.02498 0.75 9.41246 0.75 9.73038 0.835185C10.5931 1.06635 11.267 1.74022 11.4981 2.60295C11.5833 2.92087 11.5833 3.30836 11.5833 4.08333V4.38291C10.5221 4.18765 9.40434 4.08333 8.25 4.08333ZM8.25 4.08333C11.0646 4.08333 13.6619 4.70348 15.7512 5.75M8.25 4.08333C5.43599 4.08333 2.83915 4.70324 0.75 5.74939" stroke="#0A0A0A" stroke-opacity="0.7" stroke-width="1.5" stroke-linecap="round" stroke-linejoin="round"/>
</svg>
