<svg width="17" height="19" viewBox="0 0 17 19" fill="none" xmlns="http://www.w3.org/2000/svg">
<path d="M9.91667 1.04557V3.08317C9.91667 4.01659 9.91667 4.4833 10.0983 4.83982C10.2581 5.15342 10.5131 5.40839 10.8267 5.56818C11.1832 5.74983 11.6499 5.74984 12.5833 5.74984H15.2831M9.91667 1.04557C9.70217 0.960167 9.48067 0.892631 9.25444 0.843799C8.81988 0.75 8.36038 0.75 7.44137 0.75C5.09135 0.75 3.91634 0.75 3.02504 1.20414C2.24103 1.60361 1.60361 2.24103 1.20414 3.02504C0.75 3.91634 0.75 5.08311 0.75 7.41667V10.75C0.75 13.0836 0.75 14.2503 1.20414 15.1416C1.60361 15.9256 2.24103 16.5631 3.02504 16.9625C3.91634 17.4167 5.08311 17.4167 7.41667 17.4167H9.08333C11.4169 17.4167 12.5837 17.4167 13.475 16.9625C14.259 16.5631 14.8964 15.9256 15.2959 15.1416C15.75 14.2503 15.75 13.0836 15.75 10.75V8.81623C15.75 7.68842 15.75 7.12451 15.6114 6.60066C15.5333 6.30538 15.4231 6.02011 15.2831 5.74984M9.91667 1.04557C10.0676 1.10569 10.2152 1.17466 10.3584 1.25219C10.7494 1.46378 11.096 1.76084 11.7891 2.35496L13.4219 3.75452C14.2782 4.48849 14.7064 4.85548 15.0139 5.30163C15.1131 5.4455 15.203 5.59521 15.2831 5.74984" stroke="#080807" stroke-width="1.5" stroke-linecap="round" stroke-linejoin="round"/>
</svg>
