<svg width="388" height="74" viewBox="0 0 388 74" fill="none" xmlns="http://www.w3.org/2000/svg">
<g clip-path="url(#clip0_230_4844)">
<path d="M102.365 17.1936H112.969L107.695 47.2504H125.37L123.691 56.7882H95.4121L102.365 17.1936Z" fill="#0A0A0A"/>
<path d="M145.965 17.1936H156.45L164.234 56.7882H153.028L152.015 49.9454H139.131L135.535 56.7882H124.156L145.965 17.1936ZM150.765 41.303L149.205 29.0701L143.511 41.303H150.765Z" fill="#0A0A0A"/>
<path d="M174.053 17.1936H185.076L191.847 37.2924L205.626 17.1936H217.854L210.909 56.7882H200.297L204.376 33.6929L192.632 50.6032H186.874L181.244 34.0492L177.228 56.7882H167.1L174.053 17.1936Z" fill="#0A0A0A"/>
<path d="M225.564 17.1936H241.022C250.548 17.1936 255.156 21.0946 255.156 29.2529C255.156 38.7267 248.805 44.1899 237.782 44.1899H231.431L229.214 56.7882H218.61L225.555 17.1936H225.564ZM238.211 35.1911C242.281 35.1911 244.325 33.4553 244.325 29.9746C244.325 27.2156 242.947 26.2015 239.416 26.2015H234.616L233.001 35.1911H238.211Z" fill="#0A0A0A"/>
<path d="M269.529 17.1936H280.013L287.797 56.7882H276.591L275.578 49.9454H262.694L259.099 56.7882H247.719L269.529 17.1936ZM274.328 41.303L272.768 29.0701L267.074 41.303H274.328Z" fill="#0A0A0A"/>
<path d="M297.616 17.1935H313.849C323.193 17.1935 327.628 20.9117 327.628 28.7046C327.628 35.4194 324.334 40.0421 318.458 42.0794L325.292 56.7698H313.247L307.553 43.2122H303.657L301.257 56.7698H290.653L297.607 17.1843L297.616 17.1935ZM310.975 34.7068C314.689 34.7068 316.724 32.907 316.724 29.7278C316.724 27.2063 315.41 26.1922 312.17 26.1922H306.659L305.162 34.7068H310.975Z" fill="#0A0A0A"/>
<path d="M336.608 17.1936H349.666C361.647 17.1936 368.6 22.3553 368.6 34.4055C368.6 47.963 359.849 56.779 344.692 56.779H329.654L336.608 17.1936ZM345.413 47.3692C353.735 47.3692 357.641 42.1526 357.641 35.0084C357.641 29.3077 355.122 26.6126 348.352 26.6126H345.541L341.946 47.3692H345.422H345.413Z" fill="#0A0A0A"/>
<path d="M377.388 17.1936H388L381.047 56.7882H370.443L377.388 17.1936Z" fill="#0A0A0A"/>
<path d="M76.2955 0H74.3975V74H76.2955V0Z" fill="#0A0A0A"/>
<path d="M51.5022 24.1916C49.9783 20.0531 47.624 16.6181 44.4484 13.8865C42.8607 12.4247 40.9535 11.1457 38.9186 10.0677C36.8198 9.05362 34.5294 8.09436 32.0565 7.33608C29.5106 6.57781 26.7822 6.00226 23.8531 5.6825C20.9969 5.36275 17.8122 5.1709 14.4451 5.1709H0.0273753V5.33534H0V58.46H34.7211V57.5921H8.48636V5.99312H15.4032C20.1756 5.99312 24.3641 6.69658 27.9229 8.15831C31.4817 9.55608 34.4656 11.5934 36.8837 14.325C39.3019 17.0018 41.0813 20.3729 42.2858 24.4383C43.4264 28.4489 44.0013 33.1539 44.0013 38.4983C44.0013 45.6242 42.9154 51.4803 40.8258 56.1852C39.3019 59.4924 37.267 62.2331 34.7211 64.3344V68.6008C36.1811 68.1531 37.5864 67.5776 38.9186 66.9472C40.8258 65.9879 42.5413 64.9099 44.0013 63.5761C46.2278 61.8585 48.0711 59.7573 49.5311 57.3363C50.9912 54.9153 52.0679 52.1837 52.7706 49.0593C53.5371 45.944 53.8564 42.445 53.8564 38.6902C53.8564 33.1539 53.0899 28.2571 51.5022 24.1825" fill="#FF6E00"/>
</g>
<defs>
<clipPath id="clip0_230_4844">
<rect width="388" height="74" fill="white"/>
</clipPath>
</defs>
</svg>
