<svg width="40" height="40" viewBox="0 0 40 40" fill="none" xmlns="http://www.w3.org/2000/svg">
<path d="M15.834 19.226L19.3695 22.7615L25.2621 16.8689M8.33397 27.1427C6.27677 23.807 5.48013 18.6665 5.17632 14.8257C5.04975 13.2256 4.98647 12.4255 5.2629 11.5186C5.4862 10.786 5.9993 9.94106 6.54633 9.40506C7.22355 8.74151 8.06317 8.38612 9.74242 7.67532L16.8822 4.65318C18.0324 4.16635 18.6074 3.92294 19.2032 3.82669C19.7314 3.74136 20.2699 3.74136 20.798 3.82669C21.3938 3.92294 21.9689 4.16635 23.119 4.65318L30.2588 7.67532C31.9381 8.38612 32.7777 8.74151 33.4549 9.40506C34.002 9.94106 34.5151 10.786 34.7384 11.5186C35.0148 12.4255 34.9515 13.2256 34.8249 14.8257C34.5211 18.6665 33.7245 23.807 31.6673 27.1427C29.7598 30.2358 26.1532 32.9383 23.4527 34.6665C22.4639 35.2993 21.9694 35.6157 21.1294 35.8104C20.5262 35.9501 19.4751 35.9501 18.8719 35.8104C18.0318 35.6157 17.5374 35.2993 16.5486 34.6665C13.8481 32.9383 10.2415 30.2358 8.33397 27.1427Z" stroke="#FF6E00" stroke-width="2.5" stroke-linecap="round" stroke-linejoin="round"/>
</svg>
