<svg width="40" height="40" viewBox="0 0 40 40" fill="none" xmlns="http://www.w3.org/2000/svg">
<path d="M16.6667 29.1667V10.8333C16.6667 7.61167 14.055 5 10.8333 5C7.61167 5 5 7.61167 5 10.8333L5 29.1667C5 32.3883 7.61167 35 10.8333 35M16.6667 29.1667C16.6667 32.3883 14.055 35 10.8333 35M16.6667 29.1667C16.6667 29.8319 16.5553 30.4712 16.3502 31.0668M16.6667 29.1667L16.6667 14.2512L20.6904 10.2274C22.9685 7.94936 26.6619 7.94937 28.94 10.2274C31.218 12.5055 31.218 16.1989 28.94 18.477L16.3502 31.0668M10.8333 35H29.1667C32.3883 35 35 32.3883 35 29.1667C35 25.945 32.3883 23.3333 29.1667 23.3333H24.0837L16.3502 31.0668M10.8333 35C13.3897 35 15.5621 33.3556 16.3502 31.0668" stroke="#FF6E00" stroke-width="2.5" stroke-linecap="round" stroke-linejoin="round"/>
</svg>
