<svg width="40" height="40" viewBox="0 0 40 40" fill="none" xmlns="http://www.w3.org/2000/svg">
<path d="M8.33398 5L11.6673 5M3.33398 11.6667L11.6673 11.6667M12.5007 26.6667C10.1995 26.6667 8.33398 28.5321 8.33398 30.8333C8.33398 33.1345 10.1995 35 12.5007 35C14.8018 35 16.6673 33.1345 16.6673 30.8333C16.6673 28.5321 14.8018 26.6667 12.5007 26.6667ZM12.5007 26.6667C14.5164 26.6667 16.1979 28.0981 16.584 30H25.0007M12.5007 26.6667C10.4999 26.6667 8.82858 28.0768 8.42622 29.9574C7.39678 29.9004 6.67625 29.767 6.06403 29.455C5.12322 28.9757 4.35832 28.2108 3.87895 27.27C3.33398 26.2004 3.33398 24.8003 3.33398 22V18.3333M29.1673 26.6667C26.8661 26.6667 25.0007 28.5321 25.0007 30.8333C25.0007 33.1345 26.8661 35 29.1673 35C31.4685 35 33.334 33.1345 33.334 30.8333C33.334 28.5321 31.4685 26.6667 29.1673 26.6667ZM29.1673 26.6667C31.1736 26.6667 32.8487 28.0846 33.2451 29.9731C33.946 29.9359 34.4337 29.8474 34.8473 29.6367C35.4745 29.3171 35.9844 28.8072 36.304 28.18C36.6673 27.4669 36.6673 26.5335 36.6673 24.6667V18.8758C36.6673 18.0605 36.6673 17.6529 36.5752 17.2692C36.4936 16.9291 36.3589 16.604 36.1761 16.3057C35.97 15.9693 35.6817 15.6811 35.1052 15.1046L33.048 13.0474C32.6503 12.6497 32.4515 12.4509 32.2308 12.2924C31.8137 11.9929 31.3331 11.7938 30.8264 11.7107C30.5583 11.6667 30.2771 11.6667 29.7147 11.6667C28.4295 11.6667 27.7869 11.6667 27.2686 11.8415C26.2824 12.1742 25.5081 12.9484 25.1755 13.9346C25.0006 14.453 25.0007 15.0955 25.0007 16.3807V30M29.1673 26.6667C27.1515 26.6667 25.4701 28.0981 25.084 30H25.0007M25.0007 30L25.0007 13C25.0007 10.1997 25.0007 8.79961 24.4557 7.73005C23.9763 6.78924 23.2114 6.02433 22.2706 5.54497C21.3861 5.09429 20.2755 5.01632 18.334 5.00282" stroke="#FF6E00" stroke-width="2.5" stroke-linecap="round" stroke-linejoin="round"/>
</svg>
