<svg width="40" height="40" viewBox="0 0 40 40" fill="none" xmlns="http://www.w3.org/2000/svg">
<path d="M20 14.8437L18.9528 15.5262C19.1835 15.8802 19.5774 16.0937 20 16.0937C20.4226 16.0937 20.8165 15.8802 21.0472 15.5262L20 14.8437ZM20 23.3333L19.3864 24.4223C19.7673 24.6369 20.2327 24.6369 20.6136 24.4223L20 23.3333ZM23.3371 31.6647L23.3326 30.4147C23.14 30.4154 22.9503 30.4606 22.778 30.5467L23.3371 31.6647ZM30.4499 30.7583L29.8824 29.6445V29.6445L30.4499 30.7583ZM34.0917 27.1165L32.978 26.549L32.978 26.549L34.0917 27.1165ZM34.0917 7.88333L32.978 8.45082L32.978 8.45082L34.0917 7.88333ZM30.4499 4.24153L29.8824 5.35529V5.35529L30.4499 4.24153ZM9.55008 4.24153L10.1176 5.35529L9.55008 4.24153ZM5.90828 7.88333L7.02204 8.45082L7.02204 8.45082L5.90828 7.88333ZM5.90828 27.1165L7.02204 26.549L7.02204 26.549L5.90828 27.1165ZM9.55008 30.7583L10.1176 29.6445L10.1176 29.6445L9.55008 30.7583ZM13.3333 31.5866H14.5833C14.5833 30.9259 14.0691 30.3792 13.4095 30.339L13.3333 31.5866ZM13.3333 36.6666H12.0833C12.0833 37.0998 12.3076 37.5021 12.6762 37.7299C13.0447 37.9577 13.5049 37.9784 13.8924 37.7846L13.3333 36.6666ZM22.6515 13.3333V12.0833C21.0492 12.0833 19.7282 12.9713 18.9528 14.1613L20 14.8437L21.0472 15.5262C21.4384 14.926 22.0265 14.5833 22.6515 14.5833V13.3333ZM20 14.8437L21.0472 14.1613C20.2718 12.9713 18.9508 12.0833 17.3485 12.0833V13.3333V14.5833C17.9735 14.5833 18.5616 14.926 18.9528 15.5262L20 14.8437ZM17.3485 13.3333V12.0833C14.846 12.0833 12.9167 14.2172 12.9167 16.6899H14.1667H15.4167C15.4167 15.4703 16.351 14.5833 17.3485 14.5833V13.3333ZM14.1667 16.6899H12.9167C12.9167 17.8868 13.4315 18.9726 14.0546 19.8615C14.6847 20.7605 15.4996 21.5638 16.2731 22.2222C17.0523 22.8853 17.8253 23.4316 18.4005 23.8108C18.6892 24.0012 18.9311 24.1514 19.1027 24.2552C19.1885 24.3071 19.257 24.3475 19.3052 24.3756C19.3293 24.3896 19.3484 24.4006 19.362 24.4084C19.3689 24.4123 19.3743 24.4154 19.3784 24.4178C19.3804 24.4189 19.3821 24.4199 19.3835 24.4206C19.3841 24.421 19.3847 24.4213 19.3852 24.4216C19.3854 24.4217 19.3857 24.4219 19.3859 24.422C19.3861 24.4221 19.3864 24.4223 20 23.3333C20.6136 22.2442 20.6138 22.2443 20.614 22.2444C20.614 22.2445 20.6142 22.2446 20.6143 22.2446C20.6144 22.2447 20.6144 22.2447 20.6144 22.2447C20.6143 22.2446 20.6139 22.2444 20.6131 22.244C20.6116 22.2431 20.6087 22.2414 20.6045 22.239C20.5961 22.2342 20.5824 22.2263 20.5638 22.2155C20.5265 22.1938 20.4697 22.1603 20.396 22.1158C20.2486 22.0266 20.0347 21.8939 19.7766 21.7237C19.258 21.3817 18.5727 20.8965 17.8935 20.3184C17.2087 19.7355 16.5653 19.0878 16.1017 18.4265C15.631 17.7551 15.4167 17.1713 15.4167 16.6899H14.1667ZM20 23.3333C20.6136 24.4223 20.6139 24.4221 20.6141 24.422C20.6143 24.4219 20.6146 24.4217 20.6148 24.4216C20.6153 24.4213 20.6159 24.421 20.6165 24.4206C20.6179 24.4199 20.6196 24.4189 20.6216 24.4178C20.6257 24.4154 20.6311 24.4123 20.638 24.4084C20.6516 24.4006 20.6707 24.3896 20.6948 24.3756C20.743 24.3475 20.8115 24.3071 20.8973 24.2552C21.0689 24.1514 21.3108 24.0012 21.5995 23.8108C22.1747 23.4316 22.9477 22.8853 23.7269 22.2222C24.5004 21.5638 25.3153 20.7605 25.9454 19.8615C26.5685 18.9726 27.0833 17.8868 27.0833 16.6899H25.8333H24.5833C24.5833 17.1713 24.369 17.7551 23.8983 18.4265C23.4347 19.0878 22.7913 19.7355 22.1065 20.3184C21.4273 20.8965 20.742 21.3817 20.2234 21.7237C19.9653 21.8939 19.7514 22.0266 19.604 22.1158C19.5303 22.1603 19.4735 22.1938 19.4362 22.2155C19.4176 22.2263 19.4039 22.2342 19.3955 22.239C19.3913 22.2414 19.3884 22.2431 19.3869 22.244C19.3861 22.2444 19.3857 22.2446 19.3856 22.2447C19.3856 22.2447 19.3856 22.2447 19.3857 22.2446C19.3858 22.2446 19.386 22.2445 19.386 22.2444C19.3862 22.2443 19.3864 22.2442 20 23.3333ZM25.8333 16.6899H27.0833C27.0833 14.2172 25.154 12.0833 22.6515 12.0833V13.3333V14.5833C23.649 14.5833 24.5833 15.4703 24.5833 16.6899H25.8333ZM23.3371 31.6647L23.3415 32.9147C26.8433 32.9022 29.1452 32.826 31.0174 31.8721L30.4499 30.7583L29.8824 29.6445C28.6426 30.2763 26.993 30.4016 23.3326 30.4147L23.3371 31.6647ZM30.4499 30.7583L31.0174 31.8721C32.8206 30.9533 34.2867 29.4872 35.2055 27.684L34.0917 27.1165L32.978 26.549C32.2989 27.8818 31.2152 28.9654 29.8824 29.6445L30.4499 30.7583ZM34.0917 27.1165L35.2055 27.684C35.7644 26.5871 36.0125 25.3753 36.1323 23.9084C36.251 22.456 36.25 20.6462 36.25 18.3333H35H33.75C33.75 20.6874 33.749 22.3779 33.6406 23.7048C33.5334 25.0171 33.3274 25.8633 32.978 26.549L34.0917 27.1165ZM35 18.3333H36.25V16.6666H35H33.75V18.3333H35ZM35 16.6666H36.25C36.25 14.3537 36.251 12.5438 36.1323 11.0915C36.0125 9.62458 35.7644 8.41273 35.2055 7.31584L34.0917 7.88333L32.978 8.45082C33.3274 9.13653 33.5334 9.98276 33.6406 11.2951C33.749 12.622 33.75 14.3124 33.75 16.6666H35ZM34.0917 7.88333L35.2055 7.31584C34.2867 5.51262 32.8206 4.04656 31.0174 3.12777L30.4499 4.24153L29.8824 5.35529C31.2152 6.03439 32.2989 7.118 32.978 8.45082L34.0917 7.88333ZM30.4499 4.24153L31.0174 3.12777C29.9205 2.56888 28.7087 2.32079 27.2418 2.20094C25.7895 2.08228 23.9796 2.08325 21.6667 2.08325V3.33325V4.58325C24.0208 4.58325 25.7113 4.58422 27.0382 4.69264C28.3505 4.79985 29.1967 5.0059 29.8824 5.35529L30.4499 4.24153ZM21.6667 3.33325V2.08325H18.3333V3.33325V4.58325H21.6667V3.33325ZM18.3333 3.33325V2.08325C16.0204 2.08325 14.2105 2.08228 12.7582 2.20094C11.2913 2.32079 10.0795 2.56888 8.98259 3.12777L9.55008 4.24153L10.1176 5.35529C10.8033 5.0059 11.6495 4.79985 12.9618 4.69264C14.2887 4.58422 15.9792 4.58325 18.3333 4.58325V3.33325ZM9.55008 4.24153L8.98259 3.12777C7.17937 4.04656 5.71331 5.51262 4.79452 7.31584L5.90828 7.88333L7.02204 8.45082C7.70114 7.118 8.78475 6.03439 10.1176 5.35529L9.55008 4.24153ZM5.90828 7.88333L4.79452 7.31584C4.23563 8.41273 3.98754 9.62458 3.86769 11.0915C3.74903 12.5438 3.75 14.3537 3.75 16.6666H5H6.25C6.25 14.3124 6.25097 12.622 6.35938 11.2951C6.4666 9.98276 6.67265 9.13653 7.02204 8.45082L5.90828 7.88333ZM5 16.6666H3.75V18.3333H5H6.25V16.6666H5ZM5 18.3333H3.75C3.75 20.6462 3.74903 22.456 3.86769 23.9084C3.98754 25.3753 4.23563 26.5871 4.79452 27.684L5.90828 27.1165L7.02204 26.549C6.67265 25.8633 6.4666 25.0171 6.35938 23.7048C6.25097 22.3779 6.25 20.6874 6.25 18.3333H5ZM5.90828 27.1165L4.79452 27.684C5.71331 29.4872 7.17937 30.9533 8.98259 31.8721L9.55008 30.7583L10.1176 29.6445C8.78475 28.9654 7.70114 27.8818 7.02204 26.549L5.90828 27.1165ZM9.55008 30.7583L8.98259 31.8721C10.1988 32.4918 11.5602 32.7307 13.2572 32.8343L13.3333 31.5866L13.4095 30.339C11.838 30.243 10.8806 30.0333 10.1176 29.6445L9.55008 30.7583ZM13.3333 36.6666H14.5833V31.5866H13.3333H12.0833V36.6666H13.3333ZM23.3371 31.6647L22.778 30.5467L12.7743 35.5485L13.3333 36.6666L13.8924 37.7846L23.8961 32.7828L23.3371 31.6647Z" fill="#FF6E00"/>
</svg>
