<svg width="17" height="17" viewBox="0 0 17 17" fill="none" xmlns="http://www.w3.org/2000/svg">
<path d="M0.75 4.91667L0.75 9.08333C0.75 11.4169 0.75 12.5837 1.20414 13.475C1.60361 14.259 2.24103 14.8964 3.02504 15.2959C3.91634 15.75 5.08311 15.75 7.41667 15.75H9.08333C11.4169 15.75 12.5837 15.75 13.475 15.2959C14.259 14.8964 14.8964 14.259 15.2959 13.475C15.75 12.5837 15.75 11.4169 15.75 9.08333V4.91667M0.75 4.91667H15.75M0.75 4.91667L1.30798 3.98669C2.01614 2.80643 2.37023 2.21628 2.85773 1.78762C3.28914 1.40828 3.79433 1.12224 4.34157 0.947484C4.95996 0.75 5.64818 0.75 7.0246 0.75L9.4754 0.75C10.8518 0.75 11.54 0.75 12.1584 0.947484C12.7057 1.12224 13.2109 1.40828 13.6423 1.78762C14.1298 2.21628 14.4839 2.80642 15.192 3.98669L15.75 4.91667M9.91667 9.08333V4.91667L8.25 0.75L6.58333 4.91667V9.08333L8.25 8.25L9.91667 9.08333Z" stroke="#080807" stroke-opacity="0.7" stroke-width="1.5" stroke-linecap="round" stroke-linejoin="round"/>
</svg>
