<svg width="16" height="16" viewBox="0 0 16 16" fill="none" xmlns="http://www.w3.org/2000/svg">
<path d="M0 7.68C0 4.05867 0 2.25067 1.12 1.12C2.256 0 4.064 0 7.68 0H8.32C11.9413 0 13.7493 0 14.88 1.12C16 2.256 16 4.064 16 7.68V8.32C16 11.9413 16 13.7493 14.88 14.88C13.744 16 11.936 16 8.32 16H7.68C4.05867 16 2.25067 16 1.12 14.88C0 13.744 0 11.936 0 8.32V7.68Z" fill="white"/>
<path d="M8.51206 11.5253C4.86406 11.5253 2.78406 9.02935 2.69873 4.86935H4.5334C4.59206 7.92001 5.93606 9.21068 7.00273 9.47735V4.86935H8.7254V7.49868C9.77606 7.38668 10.8854 6.18668 11.2587 4.86401H12.9761C12.836 5.54869 12.5563 6.19713 12.1544 6.76883C11.7525 7.34053 11.2369 7.8232 10.6401 8.18668C11.3062 8.51821 11.8944 8.98719 12.366 9.56268C12.8376 10.1382 13.1819 10.8071 13.3761 11.5253H11.4827C11.0774 10.2613 10.0641 9.28001 8.7254 9.14668V11.5253H8.5174H8.51206Z" fill="#080807"/>
</svg>
