<svg width="147" height="28" viewBox="0 0 147 28" fill="none" xmlns="http://www.w3.org/2000/svg">
<g clip-path="url(#clip0_395_1788)">
<path d="M38.7828 6.50568H42.8001L40.8018 17.8785H47.4984L46.8623 21.4874H36.1484L38.7828 6.50568Z" fill="white"/>
<path d="M55.3013 6.50568H59.2736L62.2226 21.4874H57.9771L57.5934 18.8983H52.7118L51.3497 21.4874H47.0386L55.3013 6.50568ZM57.1198 15.6281L56.5286 10.9995L54.3713 15.6281H57.1198Z" fill="white"/>
<path d="M65.9425 6.50568H70.1188L72.684 14.1106L77.9044 6.50568H82.537L79.9061 21.4874H75.8854L77.4308 12.7486L72.9813 19.1472H70.7998L68.6668 12.8835L67.1456 21.4874H63.3081L65.9425 6.50568Z" fill="white"/>
<path d="M85.4584 6.50568H91.3148C94.9242 6.50568 96.67 7.98173 96.67 11.0686C96.67 14.6533 94.2638 16.7205 90.0875 16.7205H87.6813L86.8412 21.4874H82.824L85.4549 6.50568H85.4584ZM90.25 13.3156C91.7919 13.3156 92.5664 12.6588 92.5664 11.3417C92.5664 10.2978 92.0443 9.91407 90.7064 9.91407H88.8879L88.276 13.3156H90.25Z" fill="white"/>
<path d="M102.115 6.50568H106.088L109.037 21.4874H104.791L104.407 18.8983H99.5258L98.1637 21.4874H93.8525L102.115 6.50568ZM103.934 15.6281L103.343 10.9995L101.185 15.6281H103.934Z" fill="white"/>
<path d="M112.756 6.50568H118.907C122.447 6.50568 124.127 7.91259 124.127 10.8612C124.127 13.402 122.879 15.1511 120.653 15.922L123.242 21.4805H118.679L116.521 16.3506H115.045L114.136 21.4805H110.119L112.753 6.50222L112.756 6.50568ZM117.818 13.1323C119.225 13.1323 119.996 12.4514 119.996 11.2484C119.996 10.2943 119.498 9.91062 118.271 9.91062H116.183L115.616 13.1323H117.818Z" fill="white"/>
<path d="M127.529 6.50568H132.476C137.016 6.50568 139.65 8.45876 139.65 13.0183C139.65 18.1481 136.335 21.4839 130.592 21.4839H124.895L127.529 6.50568ZM130.865 17.9235C134.018 17.9235 135.498 15.9496 135.498 13.2464C135.498 11.0894 134.544 10.0696 131.979 10.0696H130.914L129.552 17.9235H130.869H130.865Z" fill="white"/>
<path d="M142.979 6.50568H147L144.366 21.4874H140.348L142.979 6.50568Z" fill="white"/>
<path d="M28.9056 0H28.1865V28H28.9056V0Z" fill="white"/>
<path d="M19.5124 9.15358C18.9351 7.58765 18.0431 6.2879 16.84 5.25432C16.2385 4.70123 15.5159 4.21728 14.7449 3.80938C13.9498 3.42568 13.082 3.06272 12.1451 2.7758C11.1806 2.48889 10.1469 2.27111 9.03711 2.15012C7.95501 2.02914 6.74845 1.95654 5.47274 1.95654H0.0103716V2.01877H0V22.12H13.1546V21.7916H3.21519V2.26765H5.83575C7.64386 2.26765 9.23071 2.53383 10.579 3.08691C11.9273 3.6158 13.0578 4.38667 13.974 5.42025C14.8901 6.43309 15.5643 7.70864 16.0206 9.24691C16.4528 10.7644 16.6706 12.5447 16.6706 14.5669C16.6706 17.2632 16.2592 19.479 15.4675 21.2593C14.8901 22.5106 14.1192 23.5477 13.1546 24.3427V25.957C13.7078 25.7876 14.2402 25.5699 14.7449 25.3314C15.4675 24.9684 16.1175 24.5605 16.6706 24.0558C17.5142 23.4059 18.2125 22.6109 18.7657 21.6948C19.3188 20.7788 19.7268 19.7452 19.993 18.563C20.2834 17.3842 20.4044 16.0602 20.4044 14.6395C20.4044 12.5447 20.114 10.6919 19.5124 9.15012" fill="white"/>
</g>
<defs>
<clipPath id="clip0_395_1788">
<rect width="147" height="28" fill="white"/>
</clipPath>
</defs>
</svg>
